# xmcd CD database file
#
# Track frame offsets:
#	150
#	20352
#	42357
#	57937
#	72475
#	91400
#	111190
#	129307
#	150927
#	169842
#	188380
#	206477
#	224430
#
# Disc length: 3270 seconds
#
# Revision: 0
# Processed by: cddbd v1.5PL3 Copyright (c) Steve Scherf et al.
# Submitted via: CDex 1.51
#
DISCID=ac0cc40d
DTITLE=セラフィムコール - 音楽全集 DISC-1
DYEAR=2000
DGENRE=JPop
TTITLE0=pray/佐々木ゆう子
TTITLE1=夢見てもいいじゃない/笠原弘子
TTITLE2=ベビーピンクな朝/川田妙子
TTITLE3=それから・・・/矢島晶子
TTITLE4=Viva！おんなのこ同盟/伊藤栄味子
TTITLE5=Now is the time！/長沢美樹
TTITLE6=50％のバランス/西村ちなみ
TTITLE7=Return to myself/鶴野恭子
TTITLE8=サプライズはヤメられない/佐久間レイ
TTITLE9=Endless tomorrow/浅川悠
TTITLE10=アルバム/川澄綾子
TTITLE11=Yes it's my true love/山本麻里安
TTITLE12=I miss you/ancy
EXTD=YEAR: 2000
EXTT0=
EXTT1=
EXTT2=
EXTT3=
EXTT4=
EXTT5=
EXTT6=
EXTT7=
EXTT8=
EXTT9=
EXTT10=
EXTT11=
EXTT12=
PLAYORDER=
